<?xml version="1.0" encoding="UTF-8" standalone="no"?>
<svg
   xmlns:dc="http://purl.org/dc/elements/1.1/"
   xmlns:cc="http://creativecommons.org/ns#"
   xmlns:rdf="http://www.w3.org/1999/02/22-rdf-syntax-ns#"
   xmlns:svg="http://www.w3.org/2000/svg"
   xmlns="http://www.w3.org/2000/svg"
   xmlns:sodipodi="http://sodipodi.sourceforge.net/DTD/sodipodi-0.dtd"
   xmlns:inkscape="http://www.inkscape.org/namespaces/inkscape"
   sodipodi:docname="vor.svg"
   inkscape:version="1.0 (4035a4fb49, 2020-05-01)"
   id="svg8"
   version="1.1"
   viewBox="0 0 50.720093 39.623764"
   height="39.623764mm"
   width="50.720093mm">
  <defs
     id="defs2" />
  <sodipodi:namedview
     fit-margin-bottom="0"
     fit-margin-right="0"
     fit-margin-left="0"
     fit-margin-top="0"
     inkscape:window-maximized="1"
     inkscape:window-y="-8"
     inkscape:window-x="-8"
     inkscape:window-height="1017"
     inkscape:window-width="1920"
     showgrid="false"
     inkscape:document-rotation="0"
     inkscape:current-layer="layer1"
     inkscape:document-units="mm"
     inkscape:cy="79.469618"
     inkscape:cx="113.71438"
     inkscape:zoom="1.6037229"
     inkscape:pageshadow="2"
     inkscape:pageopacity="0.0"
     borderopacity="1.0"
     bordercolor="#666666"
     pagecolor="#ffffff"
     id="base" />
  <metadata
     id="metadata5">
    <rdf:RDF>
      <cc:Work
         rdf:about="">
        <dc:format>image/svg+xml</dc:format>
        <dc:type
           rdf:resource="http://purl.org/dc/dcmitype/StillImage" />
        <dc:title></dc:title>
      </cc:Work>
    </rdf:RDF>
  </metadata>
  <g
     transform="translate(-65.201485,-16.34873)"
     id="layer1"
     inkscape:groupmode="layer"
     inkscape:label="Livello 1">
    <rect
       y="16.34873"
       x="65.201485"
       height="39.623764"
       width="50.720093"
       id="rect157"
       style="fill:#116666;fill-opacity:1;stroke-width:0.136902" />
    <g
       transform="translate(0.4244523,3.8025969)"
       id="g913">
      <path
         id="path44"
         style="fill:#ffffff;stroke-width:0.0423333"
         d="m 99.781575,19.918004 c -0.60328,-0.0057 -1.76339,0.06691 -1.76381,0.110381 -3e-5,0.0038 -0.0569,0.01383 -0.12683,0.02257 -0.44297,0.05528 -0.9961,0.193199 -1.46442,0.3649 -0.28224,0.10348 -1.08173,0.486272 -1.09851,0.525995 -0.008,0.01886 -0.0507,0.03414 -0.0954,0.03372 -0.0446,-4.23e-4 -0.0813,0.01833 -0.0815,0.04161 -2.2e-4,0.02327 -0.0245,0.04211 -0.0536,0.04186 -0.0291,-2.56e-4 -0.10366,0.04175 -0.16626,0.09352 -0.0626,0.05177 -0.15395,0.127293 -0.20314,0.167577 -0.0492,0.04029 -0.10651,0.07289 -0.12731,0.07269 -0.11079,-0.0011 -1.45647,1.433249 -1.45761,1.553576 -1.7e-4,0.01802 -0.0746,0.153189 -0.16513,0.300236 -0.0906,0.147048 -0.21429,0.371702 -0.2745,0.499194 -0.26791,0.567219 -0.38053,0.833619 -0.38117,0.901276 -3.8e-4,0.04004 -0.0277,0.123942 -0.0607,0.186501 -0.0873,0.16583 -0.2846,1.120352 -0.32174,1.556092 -0.0176,0.206429 -0.0426,1.146985 -0.0555,2.089879 -0.013,0.942895 -0.0275,1.732343 -0.0316,1.754194 -0.004,0.02185 -0.55823,-0.516956 -1.23151,-1.197205 -1.26525,-1.278359 -2.26485,-2.283539 -2.27284,-2.284594 -0.002,-3.15e-4 -0.41259,-0.409161 -0.91126,-0.908381 -0.49866,-0.499219 -0.97988,-0.9772 -1.06948,-1.062335 -0.0895,-0.08513 -0.34887,-0.349335 -0.57684,-0.587379 -0.22797,-0.238047 -0.41705,-0.4333 -0.41965,-0.433436 -0.003,-1.56e-4 -0.88876,-0.894273 -1.96921,-1.987143 -1.08044,-1.092871 -1.98098,-1.987254 -2.00125,-1.987446 -0.0203,-1.93e-4 -0.0278,0.02335 -0.017,0.05255 0.0156,0.04195 -0.34277,0.04998 -1.70576,0.03704 -1.79538,-0.01705 -1.95798,-0.01309 -1.95858,0.05013 -2e-4,0.02098 1.01375,1.067184 2.25334,2.32472 1.2396,1.257534 2.52737,2.566144 2.86175,2.907747 0.33438,0.341603 0.62697,0.639652 0.65003,0.662492 0.0231,0.02284 0.57945,0.578928 1.23682,1.236015 0.65736,0.657086 1.19739,1.195265 1.19948,1.195867 0.0489,0.01377 1.45974,1.515642 1.45146,1.545024 -0.006,0.02333 0.006,0.0317 0.0277,0.01835 0.022,-0.01334 0.92711,0.872578 2.01125,1.968937 2.54638,2.575091 2.70719,2.73223 2.98161,2.911471 0.5403,0.352902 1.03536,0.417925 1.48184,0.195462 0.19573,-0.09753 0.3697,-0.292659 0.48683,-0.546272 0.10251,-0.222031 0.0957,0.01313 0.11788,-3.872721 0.0203,-3.560887 0.0261,-3.694656 0.17543,-4.2701 0.16437,-0.630876 0.30859,-0.94481 0.69867,-1.521507 0.35305,-0.52196 0.90061,-1.044772 1.40758,-1.344752 0.36299,-0.214789 0.8503,-0.435158 1.02038,-0.461104 0.0803,-0.01226 0.14662,-0.03883 0.14681,-0.05907 1.9e-4,-0.02024 0.0587,-0.03614 0.13005,-0.03546 0.0714,6.78e-4 0.16188,-0.01565 0.20138,-0.03633 0.19511,-0.102052 1.925855,-0.150904 2.400085,-0.06764 0.83017,0.145736 0.86257,0.153743 1.08734,0.270785 0.0402,0.02095 0.0968,0.03835 0.12623,0.03892 0.11241,0.0022 0.76367,0.37093 1.08511,0.614427 0.22937,0.207888 0.29125,0.307575 0.53039,0.467559 0.20615,0.192593 0.64337,0.765201 0.64265,0.841748 -2.4e-4,0.02452 0.0156,0.04511 0.0353,0.0453 0.0397,3.76e-4 0.35236,0.675506 0.4036,0.871518 0.21811,0.83486 0.27573,1.328192 0.23173,1.991833 -0.0186,0.279237 -0.0398,0.517171 -0.0469,0.528744 -0.007,0.01157 -0.0256,0.116407 -0.0415,0.232678 -0.0388,0.283803 -0.20595,0.831399 -0.2747,0.900219 -0.0304,0.03048 -0.0556,0.08088 -0.0559,0.11213 -5.2e-4,0.05502 -0.24386,0.547619 -0.31247,0.632681 -0.0186,0.0231 -0.10463,0.136327 -0.19153,0.251924 -0.15636,0.207983 -0.51427,0.596553 -0.67152,0.729013 -0.0448,0.0377 -0.15244,0.129594 -0.23966,0.204439 -0.0872,0.07485 -0.18016,0.135755 -0.20645,0.135505 -0.0264,-2.51e-4 -0.0483,0.01864 -0.0485,0.04191 -2.3e-4,0.02327 -0.0252,0.04213 -0.0557,0.04184 -0.0305,-2.89e-4 -0.0927,0.03228 -0.13816,0.07259 -0.0455,0.04032 -0.14034,0.09931 -0.21054,0.130816 -0.0702,0.0315 -0.1973,0.09209 -0.28241,0.134783 -0.0851,0.04268 -0.19376,0.07722 -0.24155,0.07677 -0.0478,-4.54e-4 -0.099,0.01816 -0.11357,0.04129 -0.0146,0.02314 -0.0715,0.04169 -0.12701,0.04117 -0.0555,-5.27e-4 -0.11189,0.01594 -0.12489,0.03654 -0.026,0.04114 -0.0832,0.0521 -0.76623,0.145694 -0.740295,0.101445 -2.091785,0.03633 -2.729445,-0.131342 -0.10452,-0.02748 -0.24262,-0.06071 -0.30679,-0.07423 -0.0643,-0.0135 -0.12695,-0.04161 -0.13946,-0.06231 -0.0125,-0.02072 -0.0519,-0.03822 -0.088,-0.03856 -0.20416,-0.0019 -1.08217,-0.541042 -1.39493,-0.856642 -0.18836,-0.190017 -0.23809,-0.209257 -0.27805,-0.108065 -0.0145,0.03669 -0.0324,0.74463 -0.0402,1.573235 -0.0127,1.342457 -0.006,1.514911 0.0548,1.584475 0.0381,0.04295 0.0846,0.07833 0.10313,0.0785 0.0186,1.76e-4 0.16264,0.06095 0.32015,0.134822 0.40541,0.190145 0.52257,0.236389 0.70843,0.281657 0.0232,0.0056 0.19466,0.04862 0.38048,0.0956 0.73891,0.186769 1.17293,0.24061 2.09311,0.259149 0.716905,0.01451 1.645935,-0.04086 2.096765,-0.125309 0.13995,-0.02621 0.33073,-0.06213 0.424,-0.07969 0.61726,-0.116176 1.95691,-0.698032 2.26512,-0.983644 0.0303,-0.028 0.11163,-0.08376 0.18102,-0.123861 0.0695,-0.0401 0.12641,-0.08751 0.12659,-0.105774 1.7e-4,-0.01827 0.019,-0.03341 0.0421,-0.03319 0.023,2.18e-4 0.0828,-0.03238 0.13299,-0.07264 0.15686,-0.125857 0.56068,-0.48749 0.65987,-0.59114 0.0521,-0.05449 0.11644,-0.120701 0.143,-0.14696 0.45147,-0.446316 1.14954,-1.537655 1.44992,-2.266816 0.14768,-0.358501 0.36299,-1.00096 0.3638,-1.085417 3.6e-4,-0.03779 0.0288,-0.173044 0.0633,-0.300686 0.16904,-0.624542 0.22834,-2.092229 0.11822,-2.928546 -0.0916,-0.695962 -0.18065,-1.046975 -0.49663,-1.959723 -0.0845,-0.243941 -0.48211,-0.974316 -0.71618,-1.315308 -0.25743,-0.37502 -0.90945,-1.089686 -1.2132,-1.329844 -0.0597,-0.04714 -0.13867,-0.114704 -0.17583,-0.149988 -0.1333,-0.126717 -0.37506,-0.299681 -0.41936,-0.300102 -0.0248,-2.35e-4 -0.0453,-0.01756 -0.0451,-0.03867 6.1e-4,-0.06348 -1.00148,-0.544317 -1.45381,-0.697514 -0.2321,-0.0786 -0.45991,-0.15745 -0.50634,-0.174832 -0.40694,-0.152456 -1.68899,-0.309573 -2.594875,-0.318175 z"
         sodipodi:nodetypes="cscscssssssscssccssscscsssscssssssccsssscccssssscsssccssccsccsssssssssssssscsscssccscsscccssccsssscsscccsscsssccc" />
      <g
         style="font-size:5.3974px;line-height:125%;font-family:HelveticaNeue;-inkscape-font-specification:HelveticaNeue;letter-spacing:0px;word-spacing:0px;opacity:1;fill:#ffffff;fill-opacity:1;stroke:none;stroke-width:0.134936px;stroke-linecap:butt;stroke-linejoin:miter;stroke-opacity:1"
         id="text842"
         transform="scale(1.0603126,0.9431181)"
         aria-label="Vito Occhione">
        <path
           id="path848"
           style="fill:#ffffff;fill-opacity:1;stroke:none;stroke-width:0.134936px;stroke-opacity:1"
           d="M 70.103749,43.852493 68.673438,39.99875 h 0.39401 l 1.252197,3.448938 h 0.0108 l 1.241402,-3.448938 h 0.388613 l -1.430311,3.853743 z" />
        <path
           id="path850"
           style="fill:#ffffff;fill-opacity:1;stroke:none;stroke-width:0.134936px;stroke-opacity:1"
           d="m 72.245167,43.852493 v -2.785058 h 0.340037 v 2.785058 z m 0,-3.308606 V 39.99875 h 0.340037 v 0.545137 z" />
        <path
           id="path852"
           style="fill:#ffffff;fill-opacity:1;stroke:none;stroke-width:0.134936px;stroke-opacity:1"
           d="m 73.780981,40.230838 v 0.836597 h 0.566727 v 0.286062 h -0.566727 v 1.878295 q 0,0.183512 0.04318,0.253678 0.05937,0.102551 0.232088,0.113345 0.102551,0.0054 0.29146,-0.01619 v 0.29146 q -0.04858,0 -0.151128,0.0054 -0.09715,0.0054 -0.151127,0.0054 -0.340036,0 -0.474971,-0.134935 -0.129538,-0.134935 -0.129538,-0.491164 v -1.905282 h -0.485766 v -0.286062 h 0.485766 v -0.836597 z" />
        <path
           id="path854"
           style="fill:#ffffff;fill-opacity:1;stroke:none;stroke-width:0.134936px;stroke-opacity:1"
           d="m 76.020227,40.986474 q 0.615303,0 0.976929,0.437189 0.340036,0.410203 0.340036,1.036301 0,0.626098 -0.340036,1.036301 -0.361626,0.437189 -0.976929,0.437189 -0.615304,0 -0.97693,-0.437189 -0.340036,-0.410203 -0.340036,-1.036301 0,-0.626098 0.340036,-1.036301 0.361626,-0.437189 0.97693,-0.437189 z m 0,0.286062 q -0.464177,0 -0.734047,0.372421 -0.242883,0.334639 -0.242883,0.815007 0,0.480369 0.242883,0.815007 0.26987,0.372421 0.734047,0.372421 0.464176,0 0.734046,-0.372421 0.242883,-0.334638 0.242883,-0.815007 0,-0.480368 -0.242883,-0.815007 -0.26987,-0.372421 -0.734046,-0.372421 z" />
        <path
           id="path856"
           style="fill:#ffffff;fill-opacity:1;stroke:none;stroke-width:0.134936px;stroke-opacity:1"
           d="m 79.204609,41.925622 q 0,-0.841995 0.453381,-1.397927 0.496561,-0.609906 1.365543,-0.609906 0.863584,0 1.360144,0.609906 0.453382,0.555932 0.453382,1.397927 0,0.841994 -0.453382,1.397926 -0.49656,0.609906 -1.360144,0.609906 -0.868982,0 -1.365543,-0.609906 -0.453381,-0.555932 -0.453381,-1.397926 z m 0.367023,0 q 0,0.696264 0.345434,1.16044 0.388612,0.534343 1.106467,0.534343 0.712456,0 1.106467,-0.534343 0.340036,-0.464176 0.340036,-1.16044 0,-0.696265 -0.340036,-1.165839 -0.394011,-0.528945 -1.106467,-0.528945 -0.717855,0 -1.106467,0.528945 -0.345434,0.469574 -0.345434,1.165839 z" />
        <path
           id="path858"
           style="fill:#ffffff;fill-opacity:1;stroke:none;stroke-width:0.134936px;stroke-opacity:1"
           d="m 85.644971,41.941814 h -0.340036 q -0.14573,-0.669278 -0.78802,-0.669278 -0.464177,0 -0.734047,0.372421 -0.242883,0.334639 -0.242883,0.815007 0,0.480369 0.242883,0.815007 0.26987,0.372421 0.734047,0.372421 0.318446,0 0.545137,-0.221293 0.232088,-0.226691 0.264473,-0.572125 h 0.340036 q -0.07017,0.501958 -0.377818,0.793418 -0.307652,0.286062 -0.771828,0.286062 -0.615304,0 -0.97693,-0.437189 -0.340036,-0.410203 -0.340036,-1.036301 0,-0.626098 0.340036,-1.036301 0.361626,-0.437189 0.97693,-0.437189 0.458779,0 0.761033,0.237486 0.313049,0.253677 0.367023,0.717854 z" />
        <path
           id="path860"
           style="fill:#ffffff;fill-opacity:1;stroke:none;stroke-width:0.134936px;stroke-opacity:1"
           d="m 88.44909,41.941814 h -0.340036 q -0.14573,-0.669278 -0.78802,-0.669278 -0.464177,0 -0.734047,0.372421 -0.242883,0.334639 -0.242883,0.815007 0,0.480369 0.242883,0.815007 0.26987,0.372421 0.734047,0.372421 0.318446,0 0.545137,-0.221293 0.232088,-0.226691 0.264473,-0.572125 h 0.340036 q -0.07017,0.501958 -0.377818,0.793418 -0.307652,0.286062 -0.771828,0.286062 -0.615304,0 -0.97693,-0.437189 -0.340036,-0.410203 -0.340036,-1.036301 0,-0.626098 0.340036,-1.036301 0.361626,-0.437189 0.97693,-0.437189 0.458779,0 0.761033,0.237486 0.313049,0.253677 0.367023,0.717854 z" />
        <path
           id="path862"
           style="fill:#ffffff;fill-opacity:1;stroke:none;stroke-width:0.134936px;stroke-opacity:1"
           d="M 88.94312,43.852493 V 39.99875 h 0.340037 v 1.549054 h 0.01079 q 0.09176,-0.248281 0.340037,-0.404805 0.253677,-0.156525 0.550534,-0.156525 0.56133,0 0.804213,0.286062 0.215896,0.259075 0.215896,0.788021 v 1.791936 h -0.340036 v -1.737962 q 0,-0.841995 -0.70706,-0.841995 -0.399407,0 -0.636893,0.26987 -0.237485,0.26987 -0.237485,0.68547 v 1.624617 z" />
        <path
           id="path864"
           style="fill:#ffffff;fill-opacity:1;stroke:none;stroke-width:0.134936px;stroke-opacity:1"
           d="m 91.85291,43.852493 v -2.785058 h 0.340036 v 2.785058 z m 0,-3.308606 V 39.99875 h 0.340036 v 0.545137 z" />
        <path
           id="path866"
           style="fill:#ffffff;fill-opacity:1;stroke:none;stroke-width:0.134936px;stroke-opacity:1"
           d="m 94.025616,40.986474 q 0.615304,0 0.976929,0.437189 0.340037,0.410203 0.340037,1.036301 0,0.626098 -0.340037,1.036301 -0.361625,0.437189 -0.976929,0.437189 -0.615304,0 -0.976929,-0.437189 -0.340037,-0.410203 -0.340037,-1.036301 0,-0.626098 0.340037,-1.036301 0.361625,-0.437189 0.976929,-0.437189 z m 0,0.286062 q -0.464176,0 -0.734046,0.372421 -0.242883,0.334639 -0.242883,0.815007 0,0.480369 0.242883,0.815007 0.26987,0.372421 0.734046,0.372421 0.464176,0 0.734046,-0.372421 0.242883,-0.334638 0.242883,-0.815007 0,-0.480368 -0.242883,-0.815007 -0.26987,-0.372421 -0.734046,-0.372421 z" />
        <path
           id="path868"
           style="fill:#ffffff;fill-opacity:1;stroke:none;stroke-width:0.134936px;stroke-opacity:1"
           d="m 95.847997,43.852493 v -2.785058 h 0.340036 v 0.480369 h 0.0108 q 0.09176,-0.248281 0.340036,-0.404805 0.253678,-0.156525 0.550535,-0.156525 0.56133,0 0.804213,0.286062 0.215896,0.259075 0.215896,0.788021 v 1.791936 h -0.340036 v -1.737962 q 0,-0.841995 -0.70706,-0.841995 -0.399407,0 -0.636893,0.26987 -0.237486,0.26987 -0.237486,0.68547 v 1.624617 z" />
        <path
           id="path870"
           style="fill:#ffffff;fill-opacity:1;stroke:none;stroke-width:0.134936px;stroke-opacity:1"
           d="m 101.09486,42.55172 h -2.142767 q 0.0054,0.431792 0.215896,0.734046 0.253678,0.361626 0.701662,0.361626 0.690869,0 0.874379,-0.712457 h 0.34004 q -0.23209,0.998519 -1.214419,0.998519 -0.626099,0 -0.960737,-0.437189 -0.296857,-0.39401 -0.296857,-1.036301 0,-0.609906 0.296857,-1.014711 0.340036,-0.458779 0.960737,-0.458779 0.631499,0 0.960739,0.491163 0.28606,0.426395 0.26447,1.074083 z m -2.142767,-0.286062 h 1.802727 q -0.0108,-0.410203 -0.24288,-0.690867 -0.24828,-0.302255 -0.642289,-0.302255 -0.39401,0 -0.647688,0.307652 -0.226691,0.26987 -0.26987,0.68547 z" />
      </g>
      <g
         aria-label="rappresentanze"
         transform="scale(0.88204186,1.133733)"
         id="text846"
         style="font-size:2.64845px;line-height:125%;font-family:HelveticaNeue;-inkscape-font-specification:HelveticaNeue;letter-spacing:0px;word-spacing:0px;opacity:1;fill:#ffffff;fill-opacity:1;stroke:none;stroke-width:0.0662119px;stroke-linecap:butt;stroke-linejoin:miter;stroke-opacity:1">
        <path
           d="m 102.92517,39.124443 v -1.369249 h 0.28338 v 0.264845 h 0.005 q 0.0265,-0.113883 0.14566,-0.206579 0.11918,-0.09534 0.25425,-0.09534 0.0344,0 0.11389,0.0079 v 0.291329 q -0.10594,-0.01324 -0.12978,-0.01324 -0.16155,0 -0.2622,0.121828 -0.10858,0.127126 -0.10858,0.346947 v 0.651519 z"
           style="fill:#ffffff;fill-opacity:1;stroke:none;stroke-width:0.0662119px;stroke-opacity:1"
           id="path855" />
        <path
           d="m 104.70112,38.663613 v -0.225118 q -0.0583,0.03708 -0.1695,0.05562 -0.10065,0.01324 -0.20129,0.02648 -0.2463,0.04238 -0.2463,0.227767 0,0.09005 0.10064,0.13772 0.0768,0.03708 0.17744,0.03708 0.12183,0 0.21983,-0.05827 0.11918,-0.07151 0.11918,-0.201282 z m 0.30192,-0.548229 v 0.704487 q 0,0.10329 0.0715,0.10329 0.0424,0 0.0742,-0.0053 v 0.209228 q -0.098,0.03443 -0.19068,0.03443 -0.20129,0 -0.23307,-0.166852 -0.1695,0.166852 -0.47407,0.166852 -0.19863,0 -0.32576,-0.100641 -0.14302,-0.108586 -0.14302,-0.299275 0,-0.227766 0.16951,-0.328407 0.10328,-0.06091 0.35754,-0.09799 0.28603,-0.04237 0.28603,-0.04237 0.12448,-0.03708 0.12448,-0.150962 0,-0.185391 -0.28339,-0.185391 -0.28338,0 -0.30192,0.217173 h -0.30193 q 0.0265,-0.455534 0.62239,-0.455534 0.22512,0 0.37343,0.09005 0.1748,0.105938 0.1748,0.307221 z"
           style="fill:#ffffff;fill-opacity:1;stroke:none;stroke-width:0.0662119px;stroke-opacity:1"
           id="path857" />
        <path
           d="m 106.39252,38.441143 q 0,-0.198634 -0.0953,-0.336353 -0.10594,-0.148313 -0.28338,-0.148313 -0.1854,0 -0.28604,0.129774 -0.098,0.129774 -0.098,0.354892 0,0.211876 0.10329,0.346947 0.10329,0.135071 0.28074,0.135071 0.19068,0 0.29397,-0.150962 0.0847,-0.129774 0.0847,-0.331056 z m -1.05408,1.189154 v -1.875103 h 0.28603 v 0.185392 h 0.005 q 0.12183,-0.22247 0.42375,-0.22247 0.30987,0 0.48202,0.214525 0.15891,0.195985 0.15891,0.513799 0,0.299275 -0.14302,0.49526 -0.16155,0.219821 -0.44759,0.219821 -0.32311,0 -0.45818,-0.214524 h -0.005 v 0.6833 z"
           style="fill:#ffffff;fill-opacity:1;stroke:none;stroke-width:0.0662119px;stroke-opacity:1"
           id="path859" />
        <path
           d="m 108.0116,38.441143 q 0,-0.198634 -0.0953,-0.336353 -0.10594,-0.148313 -0.28338,-0.148313 -0.18539,0 -0.28603,0.129774 -0.098,0.129774 -0.098,0.354892 0,0.211876 0.10329,0.346947 0.10329,0.135071 0.28074,0.135071 0.19069,0 0.29398,-0.150962 0.0847,-0.129774 0.0847,-0.331056 z m -1.05409,1.189154 v -1.875103 h 0.28604 v 0.185392 h 0.005 q 0.12183,-0.22247 0.42375,-0.22247 0.30987,0 0.48202,0.214525 0.15891,0.195985 0.15891,0.513799 0,0.299275 -0.14302,0.49526 -0.16155,0.219821 -0.44758,0.219821 -0.32312,0 -0.45819,-0.214524 h -0.005 v 0.6833 z"
           style="fill:#ffffff;fill-opacity:1;stroke:none;stroke-width:0.0662119px;stroke-opacity:1"
           id="path861" />
        <path
           d="m 108.56864,39.124443 v -1.369249 h 0.28338 v 0.264845 h 0.005 q 0.0265,-0.113883 0.14567,-0.206579 0.11918,-0.09534 0.25425,-0.09534 0.0344,0 0.11388,0.0079 v 0.291329 q -0.10594,-0.01324 -0.12977,-0.01324 -0.16156,0 -0.2622,0.121828 -0.10859,0.127126 -0.10859,0.346947 v 0.651519 z"
           style="fill:#ffffff;fill-opacity:1;stroke:none;stroke-width:0.0662119px;stroke-opacity:1"
           id="path863" />
        <path
           d="m 110.74186,38.517948 h -1.00641 q 0,0.172149 0.09,0.283384 0.098,0.121829 0.27809,0.121829 0.25425,0 0.33371,-0.227767 h 0.28603 q -0.0477,0.219822 -0.21982,0.344299 -0.1695,0.121828 -0.39992,0.121828 -0.31516,0 -0.49261,-0.198633 -0.17745,-0.198634 -0.17745,-0.521745 0,-0.301923 0.17745,-0.508502 0.18804,-0.214525 0.48467,-0.214525 0.28868,0 0.47407,0.211876 0.17745,0.198634 0.17745,0.487315 0,0.05032 -0.005,0.100641 z m -1.00641,-0.198634 h 0.70449 q -0.008,-0.150961 -0.10329,-0.256899 -0.0927,-0.105938 -0.24101,-0.105938 -0.15361,0 -0.25425,0.103289 -0.10065,0.10329 -0.10594,0.259548 z"
           style="fill:#ffffff;fill-opacity:1;stroke:none;stroke-width:0.0662119px;stroke-opacity:1"
           id="path865" />
        <path
           d="m 110.89981,38.6848 h 0.30193 q 0.0212,0.238361 0.30987,0.238361 0.31251,0 0.30457,-0.180095 -0.005,-0.127125 -0.23836,-0.182743 -0.38933,-0.09534 -0.42111,-0.111235 -0.22776,-0.100641 -0.22776,-0.339001 0,-0.203931 0.19333,-0.30722 0.15361,-0.08475 0.37873,-0.08475 0.23042,0 0.37873,0.09534 0.16685,0.111235 0.19334,0.32576 h -0.31517 q -0.0344,-0.182743 -0.27809,-0.182743 -0.24895,0 -0.24895,0.140367 0,0.09535 0.14037,0.145665 0.0265,0.01059 0.30457,0.07416 0.20658,0.04767 0.30457,0.116532 0.13772,0.100641 0.13772,0.283384 0,0.225118 -0.19863,0.344298 -0.16686,0.100641 -0.41316,0.100641 -0.27014,0 -0.42905,-0.116531 -0.1748,-0.127126 -0.17745,-0.36019 z"
           style="fill:#ffffff;fill-opacity:1;stroke:none;stroke-width:0.0662119px;stroke-opacity:1"
           id="path867" />
        <path
           d="m 113.59205,38.517948 h -1.00642 q 0,0.172149 0.0901,0.283384 0.098,0.121829 0.27809,0.121829 0.25425,0 0.3337,-0.227767 h 0.28604 q -0.0477,0.219822 -0.21983,0.344299 -0.1695,0.121828 -0.39991,0.121828 -0.31517,0 -0.49261,-0.198633 -0.17745,-0.198634 -0.17745,-0.521745 0,-0.301923 0.17745,-0.508502 0.18804,-0.214525 0.48466,-0.214525 0.28868,0 0.47408,0.211876 0.17744,0.198634 0.17744,0.487315 0,0.05032 -0.005,0.100641 z m -1.00642,-0.198634 h 0.70449 q -0.008,-0.150961 -0.10329,-0.256899 -0.0927,-0.105938 -0.24101,-0.105938 -0.15361,0 -0.25425,0.103289 -0.10064,0.10329 -0.10594,0.259548 z"
           style="fill:#ffffff;fill-opacity:1;stroke:none;stroke-width:0.0662119px;stroke-opacity:1"
           id="path869" />
        <path
           d="m 113.82416,39.124443 v -1.369249 h 0.28603 v 0.201283 l 0.005,0.0053 q 0.14566,-0.243658 0.4264,-0.243658 0.22776,0 0.35489,0.11918 0.12977,0.119181 0.12977,0.346947 v 0.9402 h -0.30192 V 38.2637 q 0,-0.30722 -0.26749,-0.30722 -0.14832,0 -0.24101,0.103289 -0.0901,0.10329 -0.0901,0.2569 v 0.807777 z"
           style="fill:#ffffff;fill-opacity:1;stroke:none;stroke-width:0.0662119px;stroke-opacity:1"
           id="path871" />
        <path
           d="m 115.20723,37.980313 v -0.225119 h 0.22776 v -0.410509 h 0.30193 v 0.410509 h 0.27279 v 0.225119 h -0.27279 v 0.730972 q 0,0.105938 0.0212,0.140368 0.0291,0.04767 0.12447,0.04767 0.0847,0 0.12713,-0.01059 v 0.233064 q -0.19864,0.01589 -0.19599,0.01589 -0.22247,0 -0.30722,-0.09005 -0.0715,-0.07416 -0.0715,-0.259548 v -0.807777 z"
           style="fill:#ffffff;fill-opacity:1;stroke:none;stroke-width:0.0662119px;stroke-opacity:1"
           id="path873" />
        <path
           d="m 117.07434,38.663613 v -0.225118 q -0.0583,0.03708 -0.1695,0.05562 -0.10064,0.01324 -0.20128,0.02648 -0.24631,0.04238 -0.24631,0.227767 0,0.09005 0.10065,0.13772 0.0768,0.03708 0.17744,0.03708 0.12183,0 0.21982,-0.05827 0.11918,-0.07151 0.11918,-0.201282 z m 0.30193,-0.548229 v 0.704487 q 0,0.10329 0.0715,0.10329 0.0424,0 0.0742,-0.0053 v 0.209228 q -0.098,0.03443 -0.19069,0.03443 -0.20128,0 -0.23306,-0.166852 -0.1695,0.166852 -0.47407,0.166852 -0.19864,0 -0.32576,-0.100641 -0.14302,-0.108586 -0.14302,-0.299275 0,-0.227766 0.1695,-0.328407 0.10329,-0.06091 0.35754,-0.09799 0.28603,-0.04237 0.28603,-0.04237 0.12448,-0.03708 0.12448,-0.150962 0,-0.185391 -0.28338,-0.185391 -0.28339,0 -0.30193,0.217173 h -0.30192 q 0.0265,-0.455534 0.62239,-0.455534 0.22512,0 0.37343,0.09005 0.1748,0.105938 0.1748,0.307221 z"
           style="fill:#ffffff;fill-opacity:1;stroke:none;stroke-width:0.0662119px;stroke-opacity:1"
           id="path875" />
        <path
           d="m 117.70372,39.124443 v -1.369249 h 0.28604 v 0.201283 l 0.005,0.0053 q 0.14567,-0.243658 0.4264,-0.243658 0.22777,0 0.3549,0.11918 0.12977,0.119181 0.12977,0.346947 v 0.9402 h -0.30192 V 38.2637 q 0,-0.30722 -0.2675,-0.30722 -0.14831,0 -0.24101,0.103289 -0.09,0.10329 -0.09,0.2569 v 0.807777 z"
           style="fill:#ffffff;fill-opacity:1;stroke:none;stroke-width:0.0662119px;stroke-opacity:1"
           id="path877" />
        <path
           d="m 119.17684,37.993555 v -0.238361 h 1.11235 v 0.211876 l -0.78394,0.919013 h 0.82367 v 0.23836 h -1.20505 v -0.211876 l 0.75746,-0.919012 z"
           style="fill:#ffffff;fill-opacity:1;stroke:none;stroke-width:0.0662119px;stroke-opacity:1"
           id="path879" />
        <path
           d="m 121.79086,38.517948 h -1.00641 q 0,0.172149 0.09,0.283384 0.098,0.121829 0.27808,0.121829 0.25425,0 0.33371,-0.227767 h 0.28603 q -0.0477,0.219822 -0.21982,0.344299 -0.1695,0.121828 -0.39992,0.121828 -0.31516,0 -0.49261,-0.198633 -0.17744,-0.198634 -0.17744,-0.521745 0,-0.301923 0.17744,-0.508502 0.18804,-0.214525 0.48467,-0.214525 0.28868,0 0.47407,0.211876 0.17745,0.198634 0.17745,0.487315 0,0.05032 -0.005,0.100641 z m -1.00641,-0.198634 h 0.70449 q -0.008,-0.150961 -0.10329,-0.256899 -0.0927,-0.105938 -0.24101,-0.105938 -0.15361,0 -0.25425,0.103289 -0.10064,0.10329 -0.10594,0.259548 z"
           style="fill:#ffffff;fill-opacity:1;stroke:none;stroke-width:0.0662119px;stroke-opacity:1"
           id="path881" />
      </g>
    </g>
  </g>
</svg>
